<?xml version="1.0" encoding="utf-8"?>
<svg id="master-artboard" viewBox="0 0 726.5162963867188 589.2225341796875" version="1.1" xmlns="http://www.w3.org/2000/svg" x="0px" y="0px" style="enable-background:new 0 0 1096 780;" width="726.5162963867188px" height="589.2225341796875px"><rect id="ee-background" x="0" y="0" width="726.5162963867188" height="589.2225341796875" style="fill: rgb(228, 237, 240); fill-opacity: 0; pointer-events: none;"/>

<path class="st0" d="M668.4,468.8c8-3.2,13.1-11.2,12.5-19.8c0-0.5,0-0.7,0-0.7L584.2,490c-27.8,13.9-23.5,20.3-23.5,20.3l10.7,5.9&#10;&#9;&#9;c-4,9.2-9.7,14-15.1,16.6c-0.5-4.3-1.1-9.1-1.7-14.1c-2.7-21.6-19.9-18.9-19.9-18.9c-13.2-6.5-14.8,4.8-14.8,4.8&#10;&#9;&#9;c2.7-2.4,7-1.5,8.4,1.8c0.5,1.2,0.9,2.7,1,4.6c0.2,4.1-1.3,14.1-2.9,22.9c-6.3-2-13.3-6.9-18-17.7l10.7-5.9c0,0,4.3-6.4-23.5-20.3&#10;&#9;&#9;l-96.7-41.7c0,0,0,0.2,0,0.7c-0.5,8.6,4.5,16.6,12.5,19.8l85.3,34l-96-23.3c0.3,2.1,0.7,4.3,1.1,6.5c1.6,8.3,8.4,14.7,16.8,15.9&#10;&#9;&#9;l75.3,10.5l-85.2-1.8c0.2,0.6,0.5,1.3,0.7,1.9c3,7.7,10.4,12.7,18.7,12.7h65.8l-73.9,8.5c0.7,1.1,1.4,2.2,2.1,3.3&#10;&#9;&#9;c4.4,6.7,12.6,10,20.5,8.5l51.4-10.1l-57.8,19.3c0.4,0.4,0.8,0.8,1.2,1.3c5.7,5.8,14.3,7.5,21.8,4.4l37.4-15.4l-42,25.4&#10;&#9;&#9;c0.5,0.3,1,0.7,1.5,1c6.7,4.5,15.5,4.6,22.3,0.1l27.2-18.1l-29.8,29c0,0,0.1,0,0.1,0.1c7.9,3.6,17.2,1.4,22.9-5l14.7-16.5&#10;&#9;&#9;L497,590.3c4.1,1.2,8.4,2.3,12.9,3.3v0.1c0,9.3,8.4,15.7,16.7,14.4c-1.8,7-5.8,21.3-9.4,28c-4.8,9.1-5.6,23.4,7.4,32.5&#10;&#9;&#9;c0,0-0.4-22.1,7.4-43.3c0,0-3.5,46.8,7.8,55c11.3-8.2,7.8-55,7.8-55c7.8,21.2,7.4,43.3,7.4,43.3c13-9.1,12.1-23.4,7.4-32.5&#10;&#9;&#9;c-3.5-6.7-7.5-21-9.4-28c8.3,1.3,16.7-5.1,16.7-14.4v-0.1c4.5-1,8.8-2.1,12.9-3.3L566,561l14.7,16.5c5.8,6.4,15,8.6,22.9,5&#10;&#9;&#9;c0,0,0.1,0,0.1-0.1l-29.8-29l27.2,18.1c6.8,4.5,15.6,4.4,22.3-0.1c0.5-0.3,1-0.7,1.5-1l-42-25.4l37.4,15.4&#10;&#9;&#9;c7.5,3.1,16.1,1.3,21.8-4.4c0.4-0.4,0.8-0.8,1.2-1.3l-57.8-19.3l51.4,10.1c7.9,1.5,16-1.7,20.5-8.5c0.7-1.1,1.4-2.2,2.1-3.3&#10;&#9;&#9;l-73.9-8.5h65.8c8.2,0,15.6-5.1,18.7-12.7c0.3-0.6,0.5-1.3,0.7-1.9l-85.2,1.8l75.3-10.5c8.4-1.2,15.2-7.5,16.8-15.9&#10;&#9;&#9;c0.4-2.2,0.8-4.4,1.1-6.5l-96,23.3L668.4,468.8z" style="fill: rgb(255, 255, 255); fill-opacity: 1;" transform="matrix(2.4331512451171875, 0, 0, 2.4331512451171875, -953.0407302379608, -1081.7173461914062)"/>
</svg>