<?xml version="1.0" standalone="no"?>
<!DOCTYPE svg PUBLIC "-//W3C//DTD SVG 20010904//EN"
 "http://www.w3.org/TR/2001/REC-SVG-20010904/DTD/svg10.dtd">
<svg version="1.0" xmlns="http://www.w3.org/2000/svg"
 width="726.000000pt" height="726.000000pt" viewBox="0 0 726.000000 726.000000"
 preserveAspectRatio="xMidYMid meet">
<metadata>
Created by potrace 1.11, written by Peter Selinger 2001-2013
</metadata>
<g transform="translate(0.000000,726.000000) scale(0.100000,-0.100000)"
fill="#000000" stroke="none">
<path d="M183 6396 c12 -142 92 -279 207 -358 38 -26 372 -164 1085 -449 567
-226 1041 -415 1054 -420 13 -5 22 -11 20 -14 -5 -5 22 -11 -1258 300 -580
140 -1056 253 -1059 251 -12 -13 32 -202 61 -259 59 -118 196 -229 318 -256
24 -6 431 -64 904 -130 1075 -150 1003 -138 835 -140 -74 0 -538 8 -1029 19
-492 11 -896 18 -898 17 -1 -2 10 -30 26 -63 35 -74 126 -174 194 -213 121
-68 74 -65 1002 -71 462 -3 832 -7 822 -8 -10 -1 -411 -47 -890 -103 -479 -55
-873 -101 -874 -103 -9 -8 104 -151 140 -177 104 -76 229 -115 331 -105 32 3
335 60 673 126 339 67 620 119 626 117 7 -2 -297 -106 -673 -232 -377 -125
-689 -231 -693 -235 -4 -4 12 -25 37 -48 121 -112 308 -149 467 -93 30 10 252
101 493 200 242 100 441 179 443 177 5 -4 -83 -58 -634 -392 -200 -120 -362
-223 -360 -228 5 -16 128 -75 179 -86 62 -13 160 -13 218 1 73 17 131 51 478
281 182 122 334 219 337 216 3 -2 -155 -159 -350 -349 -390 -378 -375 -357
-273 -378 142 -31 304 12 410 107 23 20 115 120 206 222 203 228 202 227 202
214 0 -5 -86 -163 -191 -349 -105 -187 -191 -344 -192 -349 -2 -8 182 -61 273
-79 22 -5 27 -14 37 -66 16 -84 49 -146 110 -201 65 -60 146 -92 226 -92 46 1
57 -2 57 -15 0 -23 -86 -319 -126 -434 -19 -55 -58 -154 -88 -222 -73 -167
-81 -202 -80 -337 0 -95 4 -125 24 -175 33 -86 84 -161 154 -229 l61 -59 6
134 c10 210 35 389 85 604 28 122 85 305 94 305 4 0 5 -24 4 -52 -15 -240 -6
-635 16 -808 27 -197 92 -394 149 -444 21 -19 21 -19 45 3 120 113 189 552
172 1089 -4 116 -5 212 -2 212 7 0 59 -170 90 -295 46 -185 85 -470 87 -629 1
-120 5 -122 87 -39 141 143 190 319 146 529 -8 41 -31 110 -51 152 -57 125
-110 274 -174 489 -32 111 -59 206 -59 211 0 6 27 10 63 10 66 0 126 19 187
59 73 47 150 179 150 257 l0 33 148 38 c81 21 150 40 154 44 4 3 -80 161 -187
351 -181 319 -216 387 -182 350 8 -8 93 -103 190 -212 97 -108 196 -212 219
-231 111 -90 259 -126 396 -96 102 21 117 0 -273 378 -195 189 -353 347 -350
349 3 3 155 -94 337 -216 347 -230 405 -264 478 -281 58 -14 156 -14 218 -1
51 11 174 70 179 86 1 5 -164 110 -369 234 -563 341 -630 382 -625 386 2 2
201 -77 443 -177 241 -99 463 -189 493 -200 123 -43 268 -30 384 35 64 35 135
100 120 108 -4 3 -316 108 -693 233 -376 126 -679 230 -673 232 6 2 289 -51
629 -118 693 -137 744 -143 857 -100 98 38 176 98 235 180 29 41 51 75 49 77
-1 2 -395 48 -874 103 -479 56 -880 102 -890 103 -10 1 360 5 822 8 l840 5 64
23 c128 46 232 138 290 254 17 34 30 63 28 64 -2 2 -406 -5 -898 -16 -492 -11
-955 -19 -1029 -19 -168 2 -240 -10 835 140 473 66 880 124 904 130 124 28
256 133 315 249 31 63 77 252 64 266 -3 2 -479 -111 -1059 -251 -580 -141
-1099 -267 -1154 -280 -96 -23 -133 -26 -84 -6 717 282 2060 821 2104 844 121
64 219 197 245 336 14 75 13 124 -2 118 -7 -3 -536 -231 -1175 -507 -1134
-489 -1315 -573 -1485 -688 -147 -99 -254 -219 -246 -274 2 -18 32 -39 130
-93 70 -38 128 -75 128 -81 0 -22 -61 -129 -112 -196 -66 -87 -236 -223 -255
-204 -3 3 -17 92 -30 198 -28 227 -43 290 -90 381 -70 133 -179 202 -343 218
-47 4 -110 17 -140 28 -70 26 -123 26 -174 1 -38 -18 -76 -61 -91 -102 -6 -15
-3 -16 30 -7 79 22 145 -20 171 -109 13 -44 15 -80 11 -162 -6 -88 -61 -467
-69 -475 -10 -9 -119 44 -180 88 -88 64 -169 158 -226 265 l-42 80 32 20 c18
11 71 40 118 65 133 72 127 65 105 123 -36 97 -212 238 -465 372 -84 44 -2250
988 -2419 1053 l-24 10 6 -75z"/>
</g>
</svg>
